<svg width="123" height="59" viewBox="0 0 123 59" fill="none" xmlns="http://www.w3.org/2000/svg">
<g id="gazprom-neft-logo-rus 2" clip-path="url(#clip0_0_55)">
<g id="Group">
<path id="Vector" d="M37.9901 18.4308H45.7963V20.9216H42.0829V38.4226H37.9901V18.4308ZM50.4244 30.9175L51.1259 20.9216H51.3608L52.0622 30.9175H50.4244ZM45.892 38.4226H49.8993L50.2783 33.1132H52.2082L52.589 38.4226H56.5944L54.4601 18.4308H48.0264L45.892 38.4226ZM62.456 31.4256V35.1943C62.456 35.7024 62.8587 35.8498 63.0936 35.8498C63.4795 35.8498 63.748 35.5385 63.748 35.1943V30.5408C63.748 29.918 63.6305 29.2298 62.1035 29.2298H60.4422V27.0341H62.1706C63.3285 27.0341 63.748 26.7719 63.748 25.5428V21.5771C63.748 21.2329 63.4795 20.9216 63.0934 20.9216C62.8587 20.9216 62.456 21.0526 62.456 21.5771V24.838H58.3614V22.0032C58.3614 20.6103 58.5292 18.4308 61.3985 18.4308H64.7882C67.6577 18.4308 67.8423 20.6103 67.8423 22.0032V25.1984C67.8423 27.3779 66.2817 27.9679 65.0567 27.9186V28.1154C67.8087 28.0499 67.8423 30.1144 67.8423 30.8191V34.8503C67.8423 36.2595 67.6577 38.4226 64.7882 38.4226H61.3985C58.5292 38.4226 58.3614 36.2594 58.3614 34.8502V31.4256H62.456ZM70.5273 18.4308H80.0082V38.4226H75.9138V20.9216H74.6217V38.4226H70.5273V18.4308ZM86.7875 29.4264V20.9218H87.3246C87.7607 20.9218 88.0795 21.282 88.0795 21.9213V28.4267C88.0795 29.066 87.7607 29.4262 87.3244 29.4262L86.7875 29.4264ZM82.693 38.4226H86.7875V31.6221H89.1365C91.9893 31.6221 92.174 29.459 92.174 28.0497V22.0032C92.174 20.6103 91.9893 18.4308 89.1367 18.4308H82.693V38.4226ZM100.245 35.1943C100.245 35.5385 99.9768 35.8498 99.5909 35.8498C99.3558 35.8498 98.9532 35.7024 98.9532 35.1943V21.5771C98.9532 21.0526 99.3559 20.9216 99.5909 20.9216C99.9768 20.9216 100.245 21.2329 100.245 21.5771V35.1943ZM94.8588 34.8503C94.8588 36.2595 95.0433 38.4226 97.8961 38.4226H101.302C104.155 38.4226 104.34 36.2594 104.34 34.8502V22.0032C104.34 20.6103 104.155 18.4308 101.302 18.4308H97.8961C95.0434 18.4308 94.8588 20.6103 94.8588 22.0032V34.8503ZM117.663 18.4308H122.999V38.4226H118.905V25.8868H118.754L116.64 38.4226H113.367L111.27 25.8868H111.119V38.4226H107.025V18.4308H112.344L115.012 32.4906L117.663 18.4308ZM32.6841 11.0569C31.4308 5.69844 28.2893 1.33966 27.8564 0.634888C27.1718 1.63439 24.6665 5.48547 23.3929 9.7459C22.0017 14.5144 21.797 18.7421 22.2771 22.8879C22.7536 27.0502 24.554 31.3272 24.554 31.3272C25.5106 33.5558 26.9436 35.9645 27.8767 37.1444C29.2441 35.4075 32.3872 30.2292 33.3671 23.4779C33.9125 19.709 33.936 16.4154 32.6841 11.0569ZM27.8564 35.8008C27.2407 34.67 26.2841 32.5232 26.1935 29.1804C26.1699 25.9687 27.4906 23.1993 27.8767 22.6259C28.2206 23.1994 29.3582 25.6081 29.4942 28.9019C29.5864 32.1137 28.4924 34.6535 27.8564 35.8008ZM32.3201 20.1513C32.2731 22.1998 32.023 24.3628 31.7042 25.6574C31.8183 23.4288 31.5449 20.2989 31.0212 17.841C30.4977 15.3993 29.0159 11.3027 27.8331 9.41814C26.7407 11.2208 25.3947 14.7602 24.69 17.8246C23.9819 20.8888 23.9618 24.6086 23.9618 25.7229C23.7737 24.7888 23.3039 21.4297 23.4365 18.0704C23.5473 15.3011 24.2117 12.4334 24.5759 11.1224C25.9652 6.74721 27.5376 3.94508 27.8329 3.50254C28.1284 3.94508 30.1083 7.40272 31.1353 11.0241C32.1573 14.6456 32.3637 18.1193 32.3201 20.1513Z" fill="#0079C2"/>
<path id="Vector_2" d="M29.9831 38.3897H20.4535V44.6331C20.462 44.6331 20.4687 44.6167 20.477 44.6167C22.7223 42.4209 26.3637 42.4209 28.6106 44.6167C30.8558 46.7962 30.8558 50.352 28.6106 52.5479C28.6004 52.5641 28.5903 52.5641 28.5804 52.5806C28.5686 52.5806 28.5569 52.597 28.5467 52.6134C26.3066 54.7765 23.3801 55.8579 20.4535 55.8579C17.5137 55.8579 14.5737 54.7765 12.3319 52.5806C8.37837 48.7296 7.9102 42.7485 10.924 38.3897C11.3377 37.7901 11.8092 37.2304 12.3319 36.7183C14.5737 34.5226 17.5137 33.441 20.4535 33.441V18.4308C9.15704 18.4308 0 27.3615 0 38.3897C0 49.418 9.15704 58.3651 20.4535 58.3651C26.3435 58.3651 31.6495 55.9234 35.3813 52.0398V38.3897H29.9831ZM123 44.2633H37.9907V58.3651H123V44.2633ZM115.649 54.1079H116.728V51.9793H115.649V54.1079ZM115.649 50.3829H117.281L118.374 50.9151L118.643 51.4472L118.913 52.5115V53.0436C118.885 56.856 116.373 55.4604 113.733 55.7044V46.924H115.649V50.3829ZM101.473 46.924V48.5204H100.11V55.7044H97.9388V48.5204H96.5766V46.924H101.473ZM81.591 53.3097H81.8606L82.3998 53.0436V49.3186H81.591V53.3097ZM79.4056 49.3188H78.5824V53.0436L79.1358 53.3097H79.4056V49.3188ZM81.591 46.924V47.7222H82.9533L83.7622 48.2543L84.3156 48.7865L84.5852 49.8508V52.7776L84.3158 53.8419L83.7622 54.374L82.9533 54.9061H81.591V55.7043H79.4056V54.9061H78.0432L77.2202 54.374L76.681 53.8419L76.4113 52.7776V49.8508L76.6808 48.7865L77.2202 48.2543L78.0432 47.7222H79.4056V46.924H81.591ZM63.8751 46.924V48.5204H62.2403V50.3829H63.8751V51.9793H62.2403V54.1079H64.1476V55.7043H60.0606V46.924H63.8751ZM44.2575 50.3829H45.3474V46.924H47.2547V55.7044H45.3474V51.9793H44.2575V55.7044H42.0778V46.924H44.2575V50.3829Z" fill="#0079C2"/>
</g>
</g>
<defs>
<clipPath id="clip0_0_55">
<rect width="123" height="59" fill="white"/>
</clipPath>
</defs>
</svg>
