<svg width="123" height="66" viewBox="0 0 123 66" fill="none" xmlns="http://www.w3.org/2000/svg">
<g id="Frame" clip-path="url(#clip0_0_9)">
<g id="St0ahf.tif_1_">
<g id="Group">
<path id="Vector" d="M123 55.1595C122.893 55.1526 122.784 55.141 122.678 55.141C106.216 55.141 89.7515 55.141 73.2896 55.141C63.0579 55.141 52.8263 55.141 42.5969 55.141C42.1752 55.141 42.2169 55.1802 42.2169 54.7511C42.2169 51.03 42.2169 47.3089 42.2169 43.59C42.2169 43.214 42.1636 43.2163 42.5946 43.2163C69.2581 43.2163 95.9192 43.2163 122.583 43.2163C122.722 43.2163 122.861 43.2163 123 43.2163C123 47.1935 123 51.1753 123 55.1595ZM89.872 46.0631C89.8674 46.1692 89.8581 46.2592 89.8581 46.3492C89.8558 46.8475 89.8558 47.3481 89.8581 47.8464C89.8627 48.4762 89.8511 49.106 89.7654 49.7312C89.7121 50.1303 89.6055 50.5132 89.4017 50.8639C89.3646 50.9262 89.3113 51.0185 89.2557 51.0254C89.0657 51.0508 89.0703 51.173 89.0703 51.3091C89.0726 51.7382 89.0703 52.1696 89.0703 52.5987C89.0703 52.8294 89.068 53.0601 89.0703 53.2908C89.0726 53.54 89.0865 53.5538 89.3298 53.5584C89.5082 53.5607 89.6843 53.5584 89.8627 53.5584C90.0481 53.5584 90.2334 53.5607 90.4188 53.5561C90.5671 53.5515 90.5903 53.5284 90.6042 53.3808C90.6111 53.3047 90.6088 53.2285 90.6111 53.1501C90.6111 52.9263 90.6065 52.7049 90.6157 52.4811C90.6204 52.3357 90.6505 52.3011 90.7965 52.3011C91.3664 52.2965 91.9387 52.2965 92.5087 52.3011C92.657 52.3011 92.6778 52.3288 92.6801 52.4834C92.6848 52.7602 92.6801 53.0371 92.6825 53.3139C92.6848 53.5469 92.6964 53.5561 92.935 53.5584C93.2756 53.5607 93.6139 53.5607 93.9545 53.5584C94.1908 53.5561 94.2024 53.5469 94.2024 53.3093C94.2047 52.6333 94.2024 51.9574 94.2024 51.2815C94.2024 51.2146 94.1908 51.1477 94.1838 51.0761C94.0819 51.0531 93.9939 51.0323 93.8803 51.0046C93.8803 50.181 93.8803 49.3621 93.8803 48.5408C93.8803 47.7195 93.8803 46.9005 93.8803 46.0608C93.7668 46.047 93.6787 46.0285 93.5884 46.0285C92.4461 46.0262 91.3039 46.0262 90.1616 46.0285C90.0713 46.0308 89.9809 46.0493 89.872 46.0631ZM114.473 49.5305C114.462 49.5282 114.453 49.5259 114.441 49.5236C114.464 49.3205 114.492 49.1175 114.513 48.9122C114.554 48.5154 114.61 48.1186 114.626 47.7218C114.647 47.2466 114.633 46.769 114.631 46.2915C114.631 46.0539 114.61 46.0331 114.362 46.0308C114.038 46.0262 113.713 46.0262 113.389 46.0308C113.146 46.0331 113.123 46.0585 113.123 46.2961C113.12 48.2109 113.12 50.1234 113.123 52.0381C113.123 52.2735 113.148 52.2965 113.394 52.3011C113.718 52.3058 114.042 52.3035 114.367 52.3011C114.638 52.2988 114.643 52.2965 114.728 52.0451C115.053 51.1015 115.375 50.1557 115.699 49.2098C115.725 49.1337 115.755 49.0575 115.785 48.9814C115.785 49.1544 115.766 49.3229 115.736 49.4866C115.579 50.3448 115.581 51.2146 115.592 52.082C115.595 52.2688 115.625 52.2965 115.813 52.2988C116.167 52.3034 116.524 52.3011 116.878 52.2988C116.943 52.2988 117.008 52.2758 117.066 52.2642C117.115 51.9389 117.098 46.2407 117.05 46.0585C116.973 46.0493 116.89 46.0331 116.807 46.0331C116.489 46.0308 116.174 46.0285 115.857 46.0331C115.62 46.0354 115.609 46.0446 115.535 46.2753C115.298 47.0067 115.062 47.738 114.826 48.467C114.707 48.8222 114.589 49.1752 114.473 49.5305ZM78.0834 52.2688C78.1876 52.2827 78.2548 52.2988 78.322 52.2988C78.6765 52.3011 79.031 52.3034 79.3878 52.2988C79.6241 52.2965 79.6473 52.2688 79.6473 52.0266C79.6473 50.1211 79.6473 48.2155 79.6473 46.31C79.6473 46.0539 79.6288 46.0308 79.3716 46.0308C78.2061 46.0285 77.0407 46.0285 75.8753 46.0308C75.6112 46.0308 75.5949 46.0539 75.5949 46.3284C75.5926 46.9813 75.5949 47.6342 75.5949 48.287C75.5949 49.5328 75.5949 50.7762 75.5949 52.022C75.5949 52.2735 75.6204 52.2965 75.873 52.3011C76.1811 52.3035 76.4893 52.3035 76.7998 52.3011C77.1821 52.3011 77.1821 52.3011 77.1821 51.9182C77.1821 50.4809 77.1821 49.0437 77.1821 47.6088C77.1821 47.5119 77.196 47.415 77.2052 47.2904C77.4323 47.2904 77.6385 47.2881 77.8447 47.2904C78.0718 47.2927 78.0764 47.2996 78.081 47.5234C78.081 47.5696 78.081 47.6157 78.081 47.6618C78.081 49.0898 78.081 50.5202 78.081 51.9482C78.0833 52.0451 78.0834 52.1443 78.0834 52.2688ZM109.863 52.2781C109.863 51.9274 109.863 51.6206 109.863 51.3138C109.863 50.8454 109.863 50.3771 109.863 49.9088C109.863 49.6873 109.872 49.6804 110.101 49.6758C110.24 49.6735 110.379 49.6735 110.518 49.6758C110.745 49.6804 110.755 49.6897 110.759 49.9088C110.762 49.9711 110.759 50.0311 110.759 50.0934C110.759 50.7462 110.757 51.3991 110.762 52.052C110.762 52.2665 110.792 52.2942 111 52.2988C111.325 52.3034 111.649 52.3011 111.973 52.3011C112.346 52.3011 112.349 52.3011 112.349 51.932C112.349 50.0888 112.349 48.2432 112.349 46.3999C112.349 46.3469 112.351 46.2915 112.346 46.2384C112.335 46.0677 112.312 46.0377 112.138 46.0331C111.86 46.0262 111.582 46.0285 111.304 46.0308C111.181 46.0308 111.056 46.0331 110.933 46.0354C110.822 46.0377 110.762 46.0931 110.762 46.2061C110.762 46.2684 110.759 46.3284 110.759 46.3907C110.759 46.9582 110.759 47.528 110.759 48.0955C110.759 48.1578 110.757 48.2178 110.757 48.2801C110.755 48.3632 110.713 48.4093 110.63 48.4116C110.414 48.4139 110.196 48.4139 109.981 48.4116C109.909 48.4116 109.867 48.3701 109.865 48.2962C109.863 48.2432 109.863 48.1878 109.863 48.1348C109.863 47.5349 109.863 46.9351 109.863 46.3376C109.863 46.25 109.851 46.16 109.846 46.0516C109.325 46.0239 108.829 46.0124 108.315 46.0585C108.315 48.1371 108.315 50.1926 108.315 52.2781C108.827 52.3173 109.327 52.3104 109.863 52.2781ZM98.6069 51.0831C98.5953 51.1776 98.5791 51.2515 98.5768 51.3253C98.5722 51.5029 98.5745 51.6783 98.5745 51.8559C98.5745 52.1835 98.5768 52.1881 98.8988 52.2827C98.922 52.2896 98.9429 52.2988 98.966 52.3034C99.9137 52.5042 100.518 52.1766 100.736 51.2469C100.866 50.6978 100.898 50.1395 100.908 49.5789C100.919 48.9191 100.91 48.257 100.912 47.5972C100.912 47.5349 100.912 47.475 100.915 47.4127C100.917 47.3435 100.952 47.2927 101.026 47.2927C101.278 47.2904 101.529 47.2927 101.811 47.2927C101.811 47.415 101.811 47.505 101.811 47.5949C101.811 49.0622 101.811 50.5317 101.811 51.9989C101.811 52.285 101.825 52.2965 102.112 52.2988C102.444 52.3011 102.777 52.3011 103.109 52.2988C103.19 52.2988 103.271 52.2781 103.361 52.2665C103.361 50.1903 103.361 48.1325 103.361 46.0816C103.125 46.0077 99.6518 46.0077 99.397 46.0862C99.397 46.1738 99.397 46.273 99.397 46.3699C99.3831 47.738 99.3715 49.106 99.3553 50.474C99.353 50.5871 99.3344 50.7024 99.3113 50.8155C99.2603 51.06 99.1305 51.1453 98.878 51.1154C98.7946 51.1061 98.7112 51.0969 98.6069 51.0831ZM61.1186 49.1106C61.1186 48.6192 61.1256 48.1255 61.1163 47.6341C61.1024 46.799 60.6321 46.1992 59.8258 45.9893C59.3948 45.8762 58.9569 45.8785 58.5167 45.9478C58.4333 45.9616 58.3499 45.9801 58.2688 46.0031C57.4833 46.2246 57.0199 46.8129 57.013 47.6249C57.0037 48.6008 57.0084 49.5766 57.013 50.5525C57.013 50.7047 57.0338 50.8593 57.0616 51.0092C57.2007 51.7313 57.6293 52.1858 58.3499 52.3588C58.8295 52.4742 59.3137 52.4742 59.7933 52.3565C60.449 52.195 60.8846 51.8005 61.0329 51.1315C61.0816 50.9147 61.1094 50.6932 61.114 50.4717C61.1279 50.0172 61.1186 49.5651 61.1186 49.1106ZM52.1011 52.2596C52.0895 52.1627 52.0848 52.0866 52.0686 52.0128C51.6423 50.0957 51.216 48.1763 50.7897 46.2592C50.7433 46.0539 50.7248 46.0308 50.5116 46.0285C50.0413 46.0239 49.5686 46.0239 49.0983 46.0285C48.9083 46.0308 48.8944 46.047 48.8481 46.2292C48.8272 46.31 48.811 46.393 48.7948 46.4761C48.3893 48.3285 47.9815 50.1787 47.5784 52.0312C47.5621 52.1027 47.5621 52.1789 47.5552 52.2527C47.6039 52.2688 47.634 52.2873 47.6618 52.2873C48.0858 52.2896 48.5098 52.2919 48.9361 52.2919C49.0612 52.2919 49.1052 52.2135 49.1215 52.1004C49.1632 51.8121 49.2095 51.5237 49.2558 51.2353C49.2836 51.0646 49.286 51.06 49.462 51.0577C49.7007 51.0531 49.9417 51.0531 50.1803 51.0577C50.3494 51.06 50.3564 51.0692 50.3888 51.2376C50.4444 51.5237 50.4931 51.8121 50.551 52.0981C50.5858 52.2712 50.6066 52.2896 50.7804 52.2919C51.1673 52.2965 51.5519 52.2942 51.9389 52.2919C51.9829 52.2965 52.0269 52.2781 52.1011 52.2596ZM70.4305 52.2665C70.3633 51.9597 70.3077 51.6921 70.2474 51.4222C69.8628 49.692 69.4759 47.9617 69.0913 46.2315C69.0519 46.0493 69.0333 46.0331 68.8433 46.0308C68.373 46.0262 67.9027 46.0262 67.43 46.0308C67.2145 46.0331 67.2006 46.0493 67.1543 46.2592C67.0547 46.7091 66.9573 47.1589 66.86 47.6088C66.5357 49.0922 66.2136 50.5778 65.8915 52.0612C65.8776 52.1258 65.8753 52.1904 65.8684 52.2504C65.9147 52.2688 65.9356 52.285 65.9587 52.285C66.3897 52.2896 66.823 52.2942 67.2539 52.2942C67.3628 52.2942 67.4138 52.2296 67.4277 52.1212C67.4671 51.8397 67.518 51.5606 67.5598 51.2792C67.5899 51.0808 67.6038 51.0646 67.8077 51.0623C68.0394 51.06 68.2711 51.0646 68.5028 51.06C68.6256 51.0577 68.6812 51.1061 68.702 51.2284C68.746 51.5006 68.797 51.7728 68.8526 52.0428C68.9013 52.285 68.9129 52.2965 69.1492 52.2988C69.4898 52.3011 69.8281 52.3011 70.1686 52.2988C70.2405 52.2988 70.3146 52.2804 70.4305 52.2665ZM73.3151 49.7889C73.3151 49.9965 73.3197 50.1649 73.3151 50.3333C73.3104 50.5017 73.3151 50.6724 73.2849 50.8362C73.234 51.1061 73.0811 51.2192 72.8169 51.2215C72.5597 51.2238 72.4161 51.1084 72.3558 50.8316C72.335 50.7439 72.335 50.6494 72.335 50.5571C72.3327 49.6735 72.335 48.7899 72.335 47.9064C72.335 47.7841 72.335 47.6595 72.335 47.5373C72.335 47.4058 72.379 47.2927 72.4856 47.2143C72.664 47.0851 72.8563 47.0736 73.0532 47.1704C73.2293 47.2558 73.3174 47.3988 73.3174 47.5949C73.3174 47.7264 73.322 47.8556 73.3174 47.9871C73.3151 48.1048 73.373 48.1555 73.4842 48.1555C73.607 48.1555 73.7321 48.1578 73.8549 48.1578C74.1329 48.1578 74.411 48.1624 74.689 48.1555C74.8558 48.1509 74.8767 48.1255 74.8813 47.9664C74.886 47.8441 74.8836 47.7195 74.8813 47.5972C74.8628 46.8406 74.3901 46.2269 73.6603 46.0147C73.1853 45.8762 72.7034 45.8762 72.2191 45.957C71.3665 46.1 70.7525 46.739 70.7664 47.6987C70.7803 48.6054 70.7664 49.512 70.771 50.4187C70.771 50.6171 70.7896 50.8178 70.8197 51.0139C70.9402 51.7567 71.3735 52.2042 72.1149 52.368C72.5342 52.4603 72.9559 52.4649 73.3799 52.4003C74.082 52.2942 74.5824 51.9413 74.7817 51.2376C74.9114 50.7809 74.8975 50.3125 74.8674 49.8442C74.8674 49.8327 74.8512 49.8188 74.8234 49.7842C74.3438 49.7543 73.8456 49.7473 73.3151 49.7889ZM80.4235 49.1706C80.4235 50.1072 80.4235 51.0462 80.4235 51.9828C80.4235 52.285 80.4374 52.2988 80.7316 52.3011C81.0398 52.3035 81.3479 52.3035 81.6584 52.3011C82.0036 52.3011 82.0083 52.2942 82.0083 51.9551C82.0083 51.3322 82.0083 50.7116 82.0106 50.0888C82.0106 49.8881 82.0245 49.8788 82.2191 49.8765C82.4346 49.8742 82.6524 49.8857 82.8679 49.8719C83.695 49.8235 84.2696 49.3759 84.4341 48.5662C84.5036 48.2155 84.5152 47.8648 84.4642 47.5142C84.3391 46.6514 83.8572 46.1208 82.942 46.0654C82.1959 46.0216 81.4452 46.04 80.6969 46.0354C80.4466 46.0331 80.4281 46.0585 80.4235 46.3169C80.4235 46.363 80.4235 46.4091 80.4235 46.4553C80.4235 47.3573 80.4235 48.2639 80.4235 49.1706ZM61.8346 49.1706C61.8346 50.0772 61.8346 50.9816 61.8346 51.8882C61.8346 51.9574 61.8322 52.0266 61.8369 52.0958C61.8461 52.255 61.874 52.2919 62.0269 52.2942C62.4277 52.3011 62.8285 52.3011 63.2294 52.2942C63.3777 52.2919 63.4031 52.2573 63.417 52.1166C63.424 52.0474 63.4217 51.9782 63.4217 51.909C63.4217 51.3322 63.4217 50.7578 63.4217 50.181C63.4217 49.8719 63.4217 49.8719 63.7229 49.8719C63.9152 49.8719 64.1098 49.8834 64.3021 49.8673C65.1918 49.7912 65.6622 49.3344 65.8336 48.6054C65.9333 48.1832 65.9286 47.7495 65.8383 47.325C65.683 46.5937 65.2312 46.1162 64.3716 46.0608C63.6117 46.01 62.8448 46.0331 62.0825 46.0285C61.8601 46.0285 61.8392 46.0585 61.8346 46.2892C61.8323 46.3515 61.8346 46.4115 61.8346 46.4737C61.8346 47.3735 61.8346 48.2732 61.8346 49.1706ZM98.2617 47.2696C98.2617 46.8475 98.2617 46.4599 98.2617 46.0516C98.1389 46.0423 98.0346 46.0308 97.928 46.0308C96.9874 46.0285 96.0444 46.0285 95.1037 46.0308C94.7283 46.0308 94.7283 46.0308 94.7283 46.3976C94.7283 48.2409 94.7283 50.0841 94.7283 51.9274C94.7283 51.9966 94.7306 52.0658 94.733 52.135C94.7353 52.2365 94.7909 52.2896 94.8905 52.2965C94.9369 52.2988 94.9832 52.3011 95.0295 52.3011C96.0166 52.3011 97.0059 52.3011 97.9929 52.2988C98.081 52.2988 98.1713 52.2781 98.2802 52.2642C98.2802 51.9389 98.2802 51.6321 98.2802 51.3253C98.2802 51.0462 98.2756 51.0438 97.9952 51.0415C97.9651 51.0415 97.9327 51.0415 97.9025 51.0415C97.4484 51.0415 96.992 51.0438 96.5379 51.0392C96.3409 51.0369 96.3224 51.0208 96.3201 50.8293C96.3154 50.5156 96.3154 50.1995 96.3201 49.8834C96.3224 49.6943 96.3432 49.6758 96.5379 49.6735C96.8692 49.6689 97.2005 49.6735 97.5342 49.6712C97.65 49.6712 97.7659 49.6758 97.8817 49.6689C98.0439 49.6597 98.081 49.632 98.0833 49.4797C98.0902 49.1798 98.0856 48.8799 98.0856 48.58C98.0856 48.4808 98.0416 48.4185 97.9373 48.4139C97.8747 48.4116 97.8145 48.4093 97.7519 48.4093C97.3442 48.4093 96.9341 48.4116 96.5263 48.407C96.3479 48.4047 96.327 48.3839 96.3247 48.2063C96.3201 47.9756 96.3201 47.7449 96.3247 47.5142C96.327 47.2904 96.3363 47.2812 96.5634 47.2812C97.0337 47.2789 97.504 47.2812 97.9744 47.2789C98.0601 47.2858 98.1505 47.2766 98.2617 47.2696ZM117.905 46.0654C117.898 46.1531 117.889 46.22 117.889 46.2869C117.889 48.2086 117.889 50.128 117.889 52.0497C117.889 52.2688 117.912 52.2896 118.123 52.2988C118.169 52.3011 118.215 52.3011 118.262 52.3011C119.195 52.3011 120.129 52.3011 121.063 52.3011C121.125 52.3011 121.186 52.3034 121.248 52.2988C121.408 52.285 121.438 52.2596 121.44 52.1027C121.445 51.819 121.445 51.5352 121.44 51.2492C121.438 51.0761 121.413 51.0554 121.237 51.0438C121.174 51.0392 121.114 51.0415 121.051 51.0415C120.595 51.0415 120.141 51.0438 119.684 51.0415C119.462 51.0415 119.455 51.0323 119.453 50.8039C119.45 50.5109 119.45 50.2203 119.453 49.9273C119.453 49.685 119.457 49.6781 119.696 49.6758C120.097 49.6735 120.497 49.6758 120.901 49.6758C120.963 49.6758 121.023 49.6735 121.086 49.6712C121.176 49.6666 121.234 49.6181 121.234 49.5282C121.237 49.2052 121.237 48.8822 121.234 48.5615C121.234 48.4716 121.174 48.4231 121.084 48.4208C121.021 48.4185 120.961 48.4162 120.898 48.4162C120.488 48.4162 120.08 48.4185 119.67 48.4139C119.469 48.4116 119.457 48.4001 119.455 48.2086C119.453 47.971 119.453 47.7333 119.455 47.4934C119.457 47.3019 119.469 47.2904 119.67 47.2881C120.15 47.2858 120.627 47.2881 121.107 47.2881C121.169 47.2881 121.23 47.2881 121.292 47.2858C121.383 47.2835 121.438 47.2397 121.44 47.1451C121.443 46.8221 121.44 46.4991 121.44 46.1761C121.44 46.0931 121.392 46.0493 121.313 46.0423C121.26 46.0354 121.206 46.0308 121.151 46.0308C120.164 46.0308 119.174 46.0285 118.187 46.0308C118.095 46.0308 118.007 46.0516 117.905 46.0654ZM105.752 49.6758C105.873 49.6758 105.966 49.6758 106.056 49.6758C106.466 49.6758 106.874 49.6781 107.284 49.6735C107.49 49.6712 107.52 49.6458 107.523 49.452C107.529 49.1752 107.529 48.8984 107.523 48.6215C107.518 48.4485 107.485 48.4231 107.316 48.4139C107.194 48.4093 107.068 48.4116 106.946 48.4116C106.605 48.4116 106.267 48.4139 105.926 48.4093C105.757 48.407 105.741 48.3908 105.738 48.2224C105.734 47.9617 105.738 47.7011 105.736 47.4381C105.736 47.3319 105.783 47.2812 105.889 47.2858C105.942 47.2881 105.998 47.2858 106.051 47.2858C106.531 47.2858 107.008 47.2881 107.488 47.2835C107.706 47.2812 107.724 47.2627 107.726 47.0436C107.729 46.7829 107.729 46.5222 107.726 46.2592C107.724 46.0631 107.703 46.0446 107.52 46.0285C107.481 46.0262 107.444 46.0262 107.404 46.0262C106.431 46.0262 105.46 46.0262 104.487 46.0262C104.425 46.0262 104.365 46.0308 104.302 46.0377C104.221 46.047 104.177 46.0908 104.175 46.1738C104.175 46.22 104.172 46.2661 104.172 46.3123C104.172 48.2109 104.172 50.1072 104.172 52.0059C104.172 52.2781 104.186 52.2919 104.457 52.2988C104.473 52.2988 104.487 52.2988 104.504 52.2988C105.467 52.2988 106.434 52.2988 107.397 52.2988C107.46 52.2988 107.52 52.2965 107.583 52.2896C107.671 52.2804 107.724 52.2342 107.724 52.1397C107.724 51.8236 107.724 51.5099 107.724 51.1938C107.724 51.1015 107.675 51.0508 107.585 51.0438C107.523 51.0392 107.462 51.0392 107.4 51.0392C106.936 51.0392 106.473 51.0392 106.01 51.0392C105.928 51.0392 105.847 51.0277 105.752 51.0208C105.752 50.5732 105.752 50.1464 105.752 49.6758ZM85.2335 52.2758C85.3563 52.285 85.4628 52.2988 85.5671 52.2988C86.5171 52.3011 87.4647 52.2988 88.4146 52.2988C88.4679 52.2988 88.5235 52.3011 88.5768 52.2965C88.7321 52.2827 88.7645 52.255 88.7668 52.0958C88.7738 51.819 88.7738 51.5421 88.7668 51.2653C88.7622 51.0715 88.7321 51.0462 88.5282 51.0415C88.3127 51.0369 88.0949 51.0392 87.8794 51.0392C87.5713 51.0392 87.2631 51.0392 86.9526 51.0392C86.8576 51.0392 86.7835 51.0162 86.7835 50.9008C86.7835 50.5386 86.7835 50.1787 86.7835 49.8165C86.7835 49.7196 86.8322 49.6758 86.9248 49.6758C86.9781 49.6758 87.0337 49.6735 87.087 49.6735C87.4809 49.6735 87.8748 49.6758 88.2687 49.6712C88.3567 49.6712 88.4424 49.6481 88.5328 49.6343C88.5328 49.226 88.5328 48.843 88.5328 48.4416C88.4332 48.4301 88.3428 48.4139 88.2524 48.4139C87.8354 48.4116 87.4183 48.4139 87.0013 48.4116C86.7928 48.4093 86.7835 48.3978 86.7812 48.1855C86.7789 48.024 86.7789 47.8625 86.7812 47.701C86.7835 47.5742 86.7881 47.445 86.7928 47.2973C86.8993 47.2927 86.9804 47.2858 87.0639 47.2835C87.5574 47.2812 88.0509 47.2835 88.5444 47.2812C88.7205 47.2812 88.7552 47.2558 88.7599 47.1128C88.7668 46.8059 88.7622 46.4991 88.7622 46.19C88.7622 46.0862 88.7066 46.0354 88.6046 46.0308C88.5583 46.0285 88.5119 46.0262 88.4656 46.0262C87.4786 46.0262 86.4892 46.0262 85.5022 46.0285C85.4142 46.0285 85.3261 46.0493 85.2288 46.0631C85.2335 48.1371 85.2335 50.1857 85.2335 52.2758ZM55.3703 49.0022C55.5232 48.8822 55.6668 48.7899 55.7873 48.6723C56.0167 48.4462 56.0955 48.1509 56.1349 47.8395C56.2206 47.1635 55.9217 46.4461 55.2197 46.1046C54.8698 45.9339 54.4991 45.897 54.1145 45.9132C53.6395 45.9339 53.2294 46.1023 52.8958 46.4414C52.5181 46.8244 52.3814 47.3043 52.3443 47.8233C52.3351 47.9571 52.3768 47.9986 52.5251 48.001C52.8795 48.0079 53.234 48.0079 53.5909 48.001C53.7669 47.9986 53.7832 47.9664 53.7994 47.7956C53.8133 47.6595 53.8249 47.5188 53.8596 47.3873C53.9152 47.1797 54.0357 47.0966 54.2466 47.0966C54.4713 47.0943 54.6381 47.2051 54.6729 47.4381C54.7053 47.648 54.7076 47.8695 54.6775 48.0771C54.6404 48.3285 54.462 48.4462 54.1979 48.4508C54.1678 48.4508 54.1353 48.4508 54.1052 48.4508C53.943 48.46 53.9175 48.4762 53.9129 48.64C53.906 48.8545 53.9106 49.0691 53.9106 49.2859C53.9083 49.6274 53.9199 49.6366 54.2535 49.6412C54.5385 49.6435 54.6798 49.7612 54.747 50.0357C54.8165 50.3218 54.8073 50.6147 54.7377 50.9031C54.6798 51.1454 54.5339 51.2561 54.2906 51.2538C54.0681 51.2538 53.9106 51.1384 53.8527 50.9147C53.8225 50.797 53.8063 50.6724 53.7994 50.5525C53.7947 50.4302 53.7461 50.3633 53.621 50.361C53.2503 50.3587 52.8796 50.3564 52.5088 50.3633C52.3721 50.3656 52.3374 50.4163 52.3397 50.5571C52.342 50.6563 52.3605 50.7555 52.3721 50.8547C52.4625 51.6044 52.9166 52.1512 53.6279 52.345C54.1377 52.4857 54.6474 52.4742 55.1571 52.3219C55.792 52.1327 56.1974 51.7198 56.3017 51.0669C56.3527 50.7532 56.3457 50.4233 56.3133 50.1072C56.2623 49.6089 55.975 49.2629 55.5093 49.0668C55.4699 49.0506 55.4305 49.0299 55.3703 49.0022ZM44.2373 49.1706C44.2373 50.1164 44.2373 51.0623 44.2373 52.0082C44.2373 52.2804 44.2582 52.2988 44.5246 52.3011C44.842 52.3035 45.1571 52.3035 45.4746 52.3011C45.8175 52.3011 45.8244 52.2942 45.8244 51.9528C45.8244 50.5155 45.8244 49.0783 45.8244 47.6411C45.8244 47.5719 45.8267 47.5027 45.8267 47.4334C45.8267 47.3412 45.8685 47.2881 45.9658 47.2904C46.0191 47.2904 46.0747 47.2881 46.128 47.2881C46.5983 47.2881 47.071 47.2904 47.5413 47.2881C47.7799 47.2881 47.8031 47.265 47.8054 47.0228C47.8101 46.769 47.8101 46.5153 47.8054 46.2615C47.8008 46.0631 47.7753 46.0423 47.5737 46.0331C47.5343 46.0308 47.4973 46.0331 47.4579 46.0331C46.501 46.0331 45.5441 46.0331 44.5849 46.0331C44.242 46.0331 44.2396 46.0377 44.2396 46.3838C44.2373 47.3089 44.2373 48.2386 44.2373 49.1706Z" fill="#0074CE"/>
<path id="Vector_2" d="M22.9105 37.4167C22.6279 37.4375 22.3915 37.4605 22.1529 37.4721C20.6816 37.5482 19.2683 37.8804 17.9175 38.4548C15.4847 39.486 13.5431 41.1102 12.095 43.3133C11.0848 44.8521 10.4453 46.5361 10.1603 48.354C10.0538 49.0323 9.99352 49.7128 10.0005 50.3957C10.0514 55.0627 12.5097 59.2014 16.4833 61.4922C17.8943 62.3043 19.4073 62.8256 21.0222 63.0725C21.9281 63.2109 22.8387 63.2501 23.7469 63.1901C26.525 63.0079 29.0018 62.0436 31.1612 60.288C31.7729 59.792 32.3521 59.2614 32.8155 58.6177C33.5222 57.6326 33.9253 56.5391 34.0249 55.3303C34.2798 52.2689 32.3011 49.4637 29.4165 48.6378C27.1065 47.9757 25.0236 48.4648 23.1978 50.0243C23.1445 50.0681 23.0912 50.1119 23.038 50.1535C23.0333 50.1558 23.0241 50.1512 22.9939 50.1465C22.9939 50.0773 22.9939 50.0035 22.9939 49.9274C22.9939 47.7819 22.9939 45.6387 22.9939 43.4932C22.9939 43.1864 22.9939 43.1864 23.2928 43.1864C28.6589 43.1864 34.0249 43.1864 39.3933 43.1864C39.4397 43.1864 39.486 43.1887 39.5323 43.1864C39.6389 43.1818 39.6876 43.2326 39.6853 43.3387C39.6829 43.401 39.6853 43.461 39.6853 43.5232C39.6853 48.5132 39.6853 53.5009 39.6899 58.4908C39.6899 58.6985 39.6296 58.8484 39.4837 58.9984C36.7103 61.8406 33.4272 63.8522 29.6204 65.0173C28.4596 65.3725 27.278 65.624 26.0778 65.7901C24.676 65.9862 23.2627 66.0415 21.8517 65.9723C18.9555 65.8316 16.1775 65.1787 13.5338 63.9883C10.4685 62.6088 7.82949 60.6548 5.62607 58.1263C3.19791 55.3441 1.54129 52.1582 0.658528 48.5778C0.417565 47.5927 0.248427 46.5961 0.137214 45.5857C0.0167323 44.4991 -0.0296067 43.4079 0.0190493 42.319C0.241477 37.2621 1.92127 32.7405 5.11403 28.7956C7.27574 26.1241 9.91938 24.0524 13.0195 22.5621C14.8985 21.6578 16.8679 21.028 18.9254 20.6704C19.6853 20.5366 20.4476 20.4328 21.2192 20.389C21.7034 20.3613 22.19 20.3336 22.6742 20.3128C22.9013 20.3036 22.9082 20.3152 22.9082 20.5435C22.9105 20.8596 22.9082 21.1733 22.9082 21.4894C22.9082 26.687 22.9082 31.8823 22.9082 37.0799C22.9105 37.1814 22.9105 37.2875 22.9105 37.4167Z" fill="#0074CE"/>
<path id="Vector_3" d="M31.2694 0C31.325 0.071516 31.3621 0.117655 31.3946 0.166102C32.4812 1.82942 33.4775 3.54581 34.3324 5.34063C35.2639 7.29463 36.0354 9.30861 36.5498 11.4126C36.9043 12.866 37.2078 14.3332 37.414 15.8166C37.5345 16.6817 37.6318 17.5514 37.7291 18.4211C37.7639 18.7418 37.7708 19.0648 37.7824 19.3877C37.8009 19.9022 37.8218 20.4167 37.8241 20.9311C37.831 21.8308 37.7754 22.7259 37.7013 23.6233C37.56 25.3397 37.312 27.04 36.9437 28.7217C36.5729 30.4104 36.0771 32.0668 35.4724 33.6886C34.6869 35.7972 33.737 37.8273 32.5692 39.756C32.231 40.3142 31.8556 40.8518 31.4942 41.3962C31.4409 41.4793 31.376 41.5554 31.2972 41.6569C31.2254 41.5646 31.1629 41.4908 31.1073 41.4123C30.1318 40.0512 29.3139 38.5979 28.5517 37.1099C27.6341 35.3173 26.953 33.4349 26.3691 31.5109C25.9752 30.2097 25.6253 28.8971 25.3821 27.559C25.2384 26.7677 25.1272 25.9695 25.0276 25.169C24.9465 24.53 24.8816 23.8863 24.8538 23.2427C24.8121 22.2461 24.7912 21.2449 24.7982 20.2459C24.8028 19.4546 24.8376 18.6634 24.9001 17.8744C24.9928 16.7278 25.1411 15.5859 25.345 14.4508C25.6879 12.543 26.1374 10.6651 26.7838 8.83568C27.4696 6.89552 28.3339 5.03611 29.3162 3.22975C29.87 2.20777 30.4608 1.20885 31.098 0.235311C31.149 0.163795 31.2046 0.0922787 31.2694 0ZM31.244 10.0399C31.2972 10.1253 31.3274 10.1691 31.3528 10.2152C31.4895 10.4644 31.6332 10.7112 31.7583 10.9673C33.0326 13.6065 34.0058 16.3541 34.6916 19.2009C34.9719 20.359 35.1526 21.5332 35.287 22.7167C35.3426 23.2058 35.3959 23.6925 35.4353 24.1816C35.484 24.786 35.5373 25.3905 35.5558 25.9972C35.5767 26.7654 35.5627 27.5336 35.5674 28.3019C35.5674 28.3642 35.5813 28.4241 35.5859 28.4841C35.6462 28.4426 35.674 28.4057 35.6832 28.3642C35.7342 28.1242 35.7852 27.8843 35.8269 27.6421C35.9775 26.7954 36.0956 25.9441 36.1582 25.086C36.2184 24.267 36.2903 23.448 36.3227 22.6267C36.3644 21.5286 36.3436 20.4305 36.2509 19.3324C36.1999 18.721 36.1675 18.1074 36.0933 17.4983C35.9937 16.6909 35.8709 15.8858 35.7388 15.0853C35.4956 13.6226 35.148 12.1831 34.6962 10.7689C34.1448 9.03869 33.452 7.36153 32.6503 5.73281C32.2611 4.93921 31.8301 4.16638 31.4154 3.38663C31.376 3.3105 31.3135 3.24821 31.2416 3.15593C31.2022 3.2113 31.1814 3.23437 31.1675 3.26205C31.0609 3.44891 30.9497 3.63347 30.8478 3.82264C29.8793 5.64515 29.073 7.54147 28.3802 9.48163C28.0697 10.3491 27.7593 11.2188 27.5137 12.107C27.0595 13.7518 26.7444 15.4244 26.5197 17.1177C26.3969 18.0474 26.3042 18.9794 26.2695 19.9137C26.2231 21.1895 26.244 22.4652 26.3135 23.7387C26.3251 23.9763 26.339 24.2139 26.3621 24.4515C26.4154 25.0467 26.4641 25.6442 26.5336 26.2394C26.617 26.9546 26.7189 27.6698 26.8163 28.3849C26.8255 28.4541 26.8325 28.5303 26.9228 28.5833C26.9298 28.5256 26.9367 28.4887 26.9391 28.4518C26.9715 27.416 26.9993 26.3779 27.034 25.342C27.0433 25.0421 27.0572 24.7422 27.085 24.4446C27.1684 23.6118 27.2379 22.779 27.3561 21.9508C27.4743 21.1157 27.6156 20.2828 27.7986 19.4593C28.2041 17.6345 28.7671 15.8558 29.4159 14.1048C29.87 12.8798 30.3751 11.6732 30.9868 10.5175C31.0609 10.3629 31.1443 10.2176 31.244 10.0399ZM31.2741 40.2427C31.3552 40.102 31.4154 40.0097 31.4641 39.9105C32.6017 37.622 33.1578 35.1928 33.1601 32.6436C33.1601 32.023 33.1021 31.4024 33.0303 30.7842C32.9098 29.746 32.6967 28.7263 32.3932 27.7228C32.1452 26.8992 31.8487 26.0918 31.4617 25.3213C31.42 25.2382 31.3598 25.1644 31.281 25.0467C31.1814 25.2198 31.1003 25.3489 31.0331 25.4851C30.3936 26.7562 29.9627 28.0988 29.6823 29.4876C29.4367 30.7103 29.3047 31.9423 29.3904 33.1926C29.446 34.0047 29.5294 34.8121 29.6731 35.6126C29.9441 37.1422 30.4214 38.6048 31.1258 39.989C31.1629 40.0628 31.2069 40.1297 31.2741 40.2427Z" fill="#0074CE"/>
<path id="Vector_4" d="M107.863 20.4073C107.986 20.4003 108.069 20.3934 108.153 20.3934C109.629 20.3934 111.102 20.3934 112.578 20.3934C112.849 20.3934 112.847 20.3957 112.893 20.6472C113.148 22.066 113.408 23.4871 113.663 24.9058C114.026 26.9314 114.383 28.9546 114.747 30.9801C114.944 32.0759 115.143 33.1694 115.342 34.2652C115.352 34.3183 115.377 34.369 115.423 34.4198C115.646 33.4924 115.792 32.5557 115.966 31.626C116.139 30.6894 116.304 29.7528 116.471 28.8162C116.638 27.8864 116.8 26.9567 116.967 26.027C117.133 25.0904 117.303 24.1538 117.472 23.2171C117.641 22.2828 117.81 21.3485 117.981 20.4026C118.093 20.398 118.176 20.3911 118.259 20.3911C119.726 20.3911 121.193 20.3911 122.662 20.3911C122.708 20.3911 122.754 20.3934 122.801 20.3934C122.91 20.3911 122.954 20.4488 122.951 20.5503C122.951 20.6126 122.951 20.6726 122.951 20.7349C122.951 27.169 122.951 33.6031 122.951 40.0372C122.951 40.3994 122.974 40.3925 122.599 40.3925C121.573 40.3925 120.546 40.3925 119.518 40.3925C119.501 40.3925 119.487 40.3925 119.471 40.3925C119.165 40.3902 119.163 40.3902 119.163 40.0834C119.163 36.1408 119.163 32.1959 119.163 28.2533C119.163 28.161 119.165 28.0687 119.158 27.9764C119.154 27.9003 119.145 27.8011 119.04 27.8195C118.994 27.8265 118.936 27.9049 118.922 27.9603C118.88 28.1402 118.857 28.3225 118.829 28.5047C118.607 29.9143 118.387 31.3238 118.164 32.7334C117.972 33.9376 117.775 35.1419 117.581 36.3461C117.377 37.6195 117.175 38.893 116.971 40.1664C116.936 40.381 116.934 40.3902 116.73 40.3902C115.85 40.3925 114.969 40.3925 114.089 40.3902C113.906 40.3902 113.878 40.3625 113.85 40.1803C113.63 38.7846 113.412 37.3911 113.19 35.9954C112.981 34.6851 112.766 33.3747 112.557 32.0644C112.349 30.754 112.145 29.4413 111.939 28.131C111.927 28.0549 111.92 27.9764 111.89 27.9072C111.874 27.868 111.816 27.8195 111.781 27.8195C111.746 27.8219 111.696 27.8795 111.686 27.9187C111.67 27.9995 111.679 28.0872 111.679 28.1725C111.679 32.1313 111.679 36.09 111.679 40.0488C111.679 40.381 111.723 40.3925 111.343 40.3925C110.294 40.3902 109.244 40.3925 108.192 40.3925C108.13 40.3925 108.069 40.3902 108.007 40.3902C107.912 40.3879 107.866 40.3418 107.866 40.2472C107.866 40.1849 107.863 40.1249 107.863 40.0626C107.863 33.6123 107.863 27.1644 107.863 20.7141C107.863 20.6241 107.863 20.5318 107.863 20.4073Z" fill="#0074CE"/>
<path id="Vector_5" d="M76.9777 22.8228C76.9684 22.9589 76.9545 23.0789 76.9545 23.1988C76.9522 25.0282 76.9545 26.8577 76.9545 28.6871C76.9545 32.4613 76.9545 36.2355 76.9545 40.0074C76.9545 40.4249 76.9592 40.3926 76.5583 40.3926C75.5551 40.3926 74.5518 40.3926 73.5463 40.3926C73.4837 40.3926 73.4235 40.3949 73.3609 40.3926C73.1825 40.3857 73.1617 40.365 73.1547 40.1919C73.1524 40.1296 73.1524 40.0697 73.1524 40.0074C73.1524 33.5963 73.1524 27.1876 73.1524 20.7765C73.1524 20.3497 73.1385 20.3912 73.544 20.3912C76.278 20.3912 79.0097 20.3912 81.7437 20.3912C82.0773 20.3912 82.0773 20.3912 82.0773 20.7119C82.0773 27.1599 82.0773 33.6079 82.0773 40.0581C82.0773 40.3926 82.0773 40.3926 81.7552 40.3926C80.6987 40.3926 79.6399 40.3926 78.5833 40.3926C78.537 40.3926 78.4907 40.3949 78.4443 40.3903C78.2914 40.3811 78.2752 40.365 78.2682 40.2127C78.2636 40.1366 78.2682 40.0581 78.2682 39.982C78.2682 34.3876 78.2682 28.7909 78.2682 23.1965C78.2682 22.772 78.2868 22.8089 77.8813 22.8066C77.6658 22.8066 77.448 22.8043 77.2326 22.8066C77.1538 22.8089 77.0773 22.8159 76.9777 22.8228Z" fill="#0074CE"/>
<path id="Vector_6" d="M105.21 30.4128C105.21 32.556 105.21 34.7014 105.21 36.8446C105.21 37.3914 105.203 37.9358 105.057 38.4664C105.013 38.6279 104.964 38.7917 104.897 38.9463C104.563 39.7329 103.959 40.1828 103.122 40.3304C102.895 40.3697 102.664 40.3858 102.432 40.3881C101.313 40.3927 100.194 40.395 99.0746 40.3881C98.8151 40.3858 98.5487 40.3651 98.2938 40.312C97.3184 40.109 96.7368 39.493 96.475 38.5518C96.3452 38.0904 96.2943 37.6151 96.2943 37.1399C96.2873 32.6436 96.2873 28.1497 96.2943 23.6534C96.2943 23.132 96.3522 22.6106 96.5144 22.1077C96.8272 21.1411 97.4829 20.5828 98.4931 20.4398C98.6761 20.4144 98.8615 20.3959 99.0445 20.3959C100.187 20.3913 101.329 20.3936 102.471 20.3936C102.844 20.3936 103.208 20.449 103.56 20.5713C104.172 20.7812 104.598 21.1895 104.867 21.7686C105.076 22.2208 105.168 22.7052 105.191 23.1966C105.215 23.7041 105.21 24.2117 105.21 24.7169C105.212 26.6178 105.21 28.5165 105.21 30.4128ZM100.099 30.3367C100.099 32.5652 100.099 34.796 100.099 37.0246C100.099 37.1238 100.096 37.2253 100.113 37.3245C100.168 37.659 100.407 37.8712 100.724 37.8804C101.042 37.892 101.301 37.7005 101.378 37.3729C101.41 37.2322 101.417 37.0845 101.417 36.9392C101.419 32.5421 101.419 28.1451 101.419 23.748C101.419 23.6718 101.431 23.5911 101.415 23.5173C101.385 23.3835 101.361 23.2427 101.297 23.1251C101.167 22.8875 100.947 22.779 100.676 22.8137C100.412 22.8483 100.215 22.9913 100.145 23.2612C100.113 23.3858 100.103 23.5196 100.103 23.6488C100.099 25.8773 100.099 28.1081 100.099 30.3367Z" fill="#0074CE"/>
<path id="Vector_7" d="M59.8072 40.3767C59.6752 40.3836 59.5918 40.3929 59.5083 40.3929C58.4588 40.3929 57.4092 40.3929 56.3596 40.3929C56.3202 40.3929 56.2831 40.3906 56.2438 40.3929C56.1302 40.3952 56.0769 40.349 56.07 40.2314C56.0445 39.7861 56.0121 39.3432 55.9796 38.898C55.9356 38.2935 55.8916 37.6891 55.8499 37.0824C55.829 36.7917 55.8151 36.501 55.7966 36.208C55.778 35.9012 55.7618 35.5944 55.7387 35.2875C55.734 35.2206 55.7109 35.1561 55.6946 35.0822C55.0714 35.0822 54.4643 35.0822 53.8364 35.0822C53.8179 35.186 53.7901 35.2806 53.7855 35.3775C53.7461 35.952 53.7136 36.5264 53.6743 37.1008C53.6372 37.636 53.5932 38.1713 53.5561 38.7088C53.5306 39.0617 53.5121 39.4147 53.4889 39.7654C53.4773 39.9269 53.4611 40.086 53.4495 40.2475C53.4426 40.3421 53.3962 40.3859 53.3035 40.3883C53.2572 40.3883 53.2109 40.3906 53.1645 40.3906C52.108 40.3906 51.0492 40.3906 49.9926 40.3906C49.9162 40.3906 49.842 40.3813 49.7493 40.3767C49.7424 40.3029 49.7308 40.2429 49.7354 40.1875C49.8096 39.4401 49.8837 38.6903 49.9625 37.9429C50.032 37.2646 50.1085 36.5841 50.178 35.9058C50.2336 35.3706 50.2799 34.8354 50.3332 34.3025C50.3865 33.7834 50.4444 33.2643 50.4977 32.7453C50.5533 32.2101 50.602 31.6748 50.6553 31.1419C50.7086 30.6067 50.7665 30.0738 50.8198 29.5386C50.8731 29.0034 50.9264 28.4705 50.9796 27.9352C51.0329 27.4093 51.0885 26.881 51.1418 26.355C51.1974 25.8128 51.2484 25.2707 51.304 24.7286C51.3573 24.1933 51.4152 23.6604 51.4685 23.1252C51.5079 22.7446 51.545 22.3616 51.582 21.9787C51.6284 21.4965 51.677 21.0167 51.7234 20.5345C51.7327 20.4422 51.7767 20.3938 51.8694 20.3915C51.9319 20.3892 51.9922 20.3892 52.0547 20.3892C53.8689 20.3892 55.6831 20.3892 57.4972 20.3892C57.5876 20.3892 57.6779 20.3984 57.7915 20.403C58.4611 27.0632 59.133 33.7027 59.8072 40.3767ZM55.5533 32.8837C55.5579 32.8122 55.5649 32.7499 55.5626 32.6899C55.5417 32.3208 55.5185 31.954 55.4977 31.5872C55.4838 31.3657 55.4699 31.1419 55.4537 30.9205C55.412 30.316 55.3703 29.7116 55.3309 29.1049C55.2938 28.5466 55.2614 27.986 55.222 27.4277C55.1849 26.8833 55.1386 26.3411 55.1038 25.7967C55.0644 25.1992 55.0343 24.6017 54.9949 24.0042C54.9717 23.6604 54.9439 23.3144 54.9138 22.9707C54.9022 22.8345 54.8142 22.7769 54.696 22.8184C54.6034 22.8507 54.6057 22.9337 54.601 23.0099C54.5825 23.3098 54.5663 23.6074 54.5477 23.9073C54.4898 24.7263 54.4296 25.5452 54.374 26.3642C54.3369 26.9317 54.3091 27.4992 54.2697 28.0644C54.2164 28.8696 54.1539 29.6724 54.0983 30.4752C54.0519 31.1489 54.0056 31.8225 53.9639 32.4961C53.9546 32.6253 53.9616 32.7545 53.9616 32.8768C54.1701 32.9529 55.3216 32.9575 55.5533 32.8837Z" fill="#0074CE"/>
<path id="Vector_8" d="M66.6831 34.7407C66.6831 33.9794 66.6831 33.2181 66.6831 32.4591C66.6831 32.3507 66.6854 32.2423 66.6669 32.1385C66.5812 31.6079 66.2521 31.301 65.6636 31.2111C65.4667 31.1811 65.2651 31.1672 65.0659 31.1626C64.6256 31.1557 64.1854 31.1626 63.7452 31.1603C63.5483 31.1603 63.5367 31.1465 63.5367 30.9481C63.5344 30.3782 63.5344 29.8107 63.5367 29.2409C63.5367 29.0379 63.5483 29.0287 63.7684 29.0287C64.2851 29.0264 64.804 29.0379 65.3207 29.024C65.5408 29.0171 65.7656 28.9825 65.9811 28.9295C66.2869 28.8533 66.4954 28.6434 66.5788 28.3412C66.6344 28.1359 66.6761 27.919 66.6785 27.7068C66.6877 26.3157 66.6854 24.9246 66.6785 23.5335C66.6785 23.3951 66.6368 23.2428 66.5696 23.1182C66.4398 22.8714 66.1595 22.7653 65.8977 22.8252C65.6196 22.8898 65.4227 23.109 65.3972 23.3904C65.3902 23.4666 65.3926 23.545 65.3926 23.6211C65.3926 24.5578 65.3926 25.4967 65.3926 26.4333C65.3926 26.4956 65.3926 26.5556 65.3902 26.6179C65.3879 26.6917 65.3439 26.7286 65.2721 26.7332C65.2188 26.7355 65.1632 26.7355 65.1099 26.7355C64.0302 26.7355 62.9482 26.7355 61.8685 26.7355C61.8152 26.7355 61.7596 26.7355 61.7063 26.7332C61.6229 26.7309 61.5812 26.6848 61.5789 26.6017C61.5789 26.5625 61.5765 26.5256 61.5765 26.4864C61.5789 25.4344 61.5719 24.3801 61.5904 23.3282C61.5997 22.7814 61.7016 22.2439 61.938 21.741C62.2925 20.9866 62.9065 20.5898 63.7081 20.4491C63.868 20.4214 64.0302 20.4006 64.1901 20.4006C65.425 20.396 66.6599 20.3914 67.8949 20.4052C68.1752 20.4075 68.4625 20.4652 68.7359 20.5413C69.4611 20.7467 69.943 21.2242 70.2164 21.9209C70.3925 22.3708 70.4806 22.8414 70.4852 23.3166C70.5014 24.6916 70.4968 26.0688 70.4898 27.4438C70.4875 27.8383 70.3949 28.2212 70.2211 28.5788C69.8457 29.3447 69.2086 29.73 68.3745 29.8223C68.2679 29.8338 68.159 29.8292 68.0501 29.8384C67.9111 29.8499 67.8601 29.8961 67.8671 29.993C67.874 30.1083 67.9574 30.1176 68.0478 30.1245C68.247 30.1383 68.4486 30.1429 68.6456 30.1752C69.6488 30.3298 70.286 30.9734 70.4412 31.9816C70.4736 32.1938 70.4945 32.4084 70.4945 32.6229C70.4968 34.2216 70.4991 35.8204 70.4875 37.4191C70.4852 37.8805 70.4064 38.335 70.2535 38.7756C69.95 39.643 69.3406 40.1598 68.437 40.3328C68.2795 40.3628 68.1173 40.3882 67.9551 40.3882C66.6507 40.3905 65.3462 40.4066 64.0418 40.3789C63.3583 40.3651 62.742 40.1206 62.2786 39.5853C61.9426 39.1955 61.7735 38.7272 61.6762 38.2312C61.602 37.8459 61.5742 37.456 61.5742 37.0615C61.5765 35.9473 61.5742 34.833 61.5742 33.7187C61.5742 33.6726 61.5765 33.6264 61.5765 33.5803C61.5789 33.4973 61.6229 33.4534 61.7086 33.4534C61.7549 33.4534 61.8013 33.4511 61.8476 33.4511C62.9435 33.4511 64.0395 33.4511 65.1354 33.4511C65.1817 33.4511 65.228 33.4511 65.2744 33.4534C65.3485 33.458 65.3856 33.4973 65.3879 33.5711C65.3902 33.6334 65.3902 33.6934 65.3902 33.7556C65.3902 34.8768 65.3902 36.0003 65.3902 37.1215C65.3902 37.2138 65.3879 37.3084 65.4088 37.396C65.4829 37.7075 65.7517 37.899 66.0784 37.8805C66.3773 37.8643 66.6298 37.6175 66.6715 37.2991C66.6808 37.223 66.6785 37.1446 66.6785 37.0684C66.6831 36.2933 66.6831 35.5159 66.6831 34.7407Z" fill="#0074CE"/>
<path id="Vector_9" d="M84.756 20.4028C84.8278 20.4005 84.9043 20.3936 84.9807 20.3936C86.9339 20.3936 88.8871 20.3959 90.8403 20.3936C91.262 20.3936 91.6721 20.4466 92.0636 20.5989C92.8352 20.8942 93.2592 21.4847 93.4747 22.253C93.6044 22.7144 93.6508 23.1896 93.6531 23.6648C93.6623 25.8772 93.6623 28.0919 93.6531 30.3043C93.6508 30.8187 93.5952 31.3309 93.4399 31.8269C93.1318 32.8027 92.4738 33.3725 91.452 33.5156C91.2319 33.5456 91.0071 33.5594 90.7847 33.5617C90.1429 33.5686 89.5034 33.564 88.8616 33.564C88.5373 33.564 88.528 33.5733 88.528 33.9055C88.528 35.9425 88.528 37.9796 88.528 40.0143C88.528 40.4134 88.5512 40.3926 88.1526 40.3926C87.1193 40.3926 86.0836 40.3926 85.0502 40.3926C84.9506 40.3926 84.8533 40.3926 84.7792 40.3926C84.749 40.3557 84.7444 40.3511 84.7398 40.3442C84.7351 40.3373 84.7305 40.3327 84.7282 40.3257C84.7212 40.2958 84.712 40.2658 84.712 40.2358C84.712 33.6886 84.7097 27.1414 84.712 20.5943C84.712 20.555 84.7166 20.5181 84.7212 20.4789C84.7212 20.4651 84.7305 20.4512 84.756 20.4028ZM88.528 27.1091C88.528 28.4149 88.528 29.7206 88.528 31.0287C88.528 31.1048 88.5303 31.1832 88.5303 31.2594C88.5326 31.3678 88.579 31.4301 88.6994 31.4255C88.8083 31.4209 88.9149 31.4255 89.0238 31.4255C89.3806 31.4232 89.6332 31.2594 89.7398 30.9202C89.8 30.7265 89.8347 30.5142 89.8347 30.3112C89.8417 28.1819 89.8394 26.0549 89.8371 23.9255C89.8371 23.7802 89.8255 23.6325 89.793 23.4918C89.7235 23.185 89.5776 22.9266 89.2462 22.8366C89.1304 22.8043 89.003 22.8113 88.8802 22.8089C88.528 22.8066 88.528 22.8089 88.528 23.1665C88.528 24.4815 88.528 25.7942 88.528 27.1091Z" fill="#0074CE"/>
<path id="Vector_10" d="M46.0259 22.8065C46.0167 22.9703 46.0028 23.0972 46.0028 23.2264C46.0028 26.493 46.0028 29.7574 46.0028 33.024C46.0028 35.3448 46.0028 37.6657 46.0028 39.9865C46.0028 40.434 46.0213 40.3925 45.5834 40.3925C44.5802 40.3925 43.5769 40.3925 42.5737 40.3925C42.5111 40.3925 42.4509 40.3948 42.3883 40.3902C42.24 40.381 42.2192 40.3602 42.2099 40.2102C42.2053 40.141 42.2076 40.0718 42.2076 40.0026C42.2076 33.5939 42.2076 27.1851 42.2076 20.7764C42.2076 20.3519 42.1868 20.3911 42.5969 20.3911C44.8049 20.3911 47.013 20.3911 49.2187 20.3911C49.5801 20.3911 49.55 20.3911 49.55 20.7164C49.55 21.33 49.55 21.946 49.55 22.5596C49.55 22.8042 49.5477 22.8065 49.3068 22.8065C48.3197 22.8065 47.3304 22.8065 46.3434 22.8065C46.2507 22.8065 46.1603 22.8065 46.0259 22.8065Z" fill="#0074CE"/>
<path id="Vector_11" d="M83.2656 56.8642C83.3768 56.6127 83.3838 56.6104 83.678 56.6773L83.2656 56.8642Z" fill="#0074CE"/>
<path id="Vector_12" d="M80.9919 56.8552C80.9826 56.7744 80.9617 56.6821 81.0822 56.6499C81.212 56.6152 81.3348 56.6475 81.3718 56.7606" fill="#0074CE"/>
<path id="Vector_13" d="M92.2982 51.0254C91.8603 51.0577 91.4386 51.0369 90.9961 51.0393C91.01 50.9724 91.0123 50.9216 91.0308 50.8778C91.2672 50.3103 91.3668 49.7151 91.3761 49.1037C91.3853 48.5823 91.3969 48.061 91.4062 47.5373C91.4108 47.2951 91.4155 47.2881 91.6495 47.2858C91.8186 47.2835 91.9901 47.2881 92.1592 47.2858C92.2658 47.2835 92.3168 47.3343 92.3121 47.4404C92.3098 47.4704 92.3121 47.5027 92.3121 47.5327C92.3121 48.6146 92.3121 49.6989 92.3121 50.7809C92.3121 50.857 92.3029 50.9308 92.2982 51.0254Z" fill="#0074CE"/>
<path id="Vector_14" d="M58.5748 49.1386C58.5748 48.6633 58.5725 48.1858 58.5771 47.7106C58.5771 47.6206 58.5864 47.526 58.6119 47.4383C58.6698 47.233 58.8459 47.1107 59.0614 47.1084C59.2722 47.1061 59.4576 47.2307 59.5178 47.4314C59.541 47.5098 59.5549 47.5975 59.5549 47.6806C59.5572 48.6564 59.5572 49.6323 59.5549 50.6081C59.5549 50.6981 59.541 50.7927 59.5178 50.8803C59.4576 51.1018 59.2861 51.2264 59.059 51.2241C58.8389 51.2217 58.6767 51.1041 58.6188 50.8895C58.5933 50.795 58.5817 50.6935 58.5794 50.5943C58.5725 50.1075 58.5748 49.623 58.5748 49.1386Z" fill="#0074CE"/>
<path id="Vector_15" d="M49.8068 47.5605C49.9157 48.3172 50.0269 49.0739 50.1358 49.8259C49.9574 49.8928 49.6724 49.8975 49.4453 49.8352C49.5519 49.0762 49.6608 48.3149 49.7697 47.5513C49.7813 47.5536 49.7929 47.5559 49.8068 47.5605Z" fill="#0074CE"/>
<path id="Vector_16" d="M68.1223 47.5742C68.2335 48.3263 68.3424 49.0807 68.4559 49.8581C68.2103 49.8581 67.9949 49.8581 67.7539 49.8581C67.8651 49.083 67.9717 48.3286 68.0783 47.5742C68.0945 47.5742 68.1084 47.5742 68.1223 47.5742Z" fill="#0074CE"/>
<path id="Vector_17" d="M82.0123 48.6449C82.0123 48.2158 82.01 47.7936 82.0146 47.3738C82.0146 47.3299 82.0517 47.2654 82.0888 47.2492C82.3691 47.1246 82.8047 47.3184 82.8719 47.6252C82.9159 47.8282 82.9159 48.0566 82.8696 48.2573C82.7862 48.6195 82.4525 48.7626 82.0123 48.6449Z" fill="#0074CE"/>
<path id="Vector_18" d="M63.4258 47.9525C63.4258 47.7679 63.4258 47.5857 63.4258 47.4011C63.4258 47.2881 63.4745 47.2397 63.5904 47.2304C64.063 47.1935 64.3225 47.4219 64.3295 47.8902C64.3295 47.9364 64.3295 47.9825 64.3295 48.0286C64.3132 48.4693 64.0329 48.7184 63.595 48.6907C63.4815 48.6838 63.4235 48.6423 63.4258 48.5269C63.4282 48.3355 63.4282 48.144 63.4258 47.9525Z" fill="#0074CE"/>
</g>
</g>
</g>
<defs>
<clipPath id="clip0_0_9">
<rect width="123" height="66" fill="white"/>
</clipPath>
</defs>
</svg>
