<svg width="137" height="46" viewBox="0 0 137 46" fill="none" xmlns="http://www.w3.org/2000/svg">
<g id="Frame" clip-path="url(#clip0_0_32)">
<g id="Group">
<g id="Group_2">
<path id="Vector" d="M99.6888 43.9527C98.8957 43.9527 98.093 44.0106 97.2999 43.943C95.5894 43.7789 94.6052 42.3788 94.7772 40.438C94.9301 38.671 96.0385 37.6378 97.7968 37.6378C99.1537 37.6378 100.501 37.6282 101.858 37.6475C102.183 37.6475 102.307 37.5703 102.298 37.2226C102.278 36.7592 102.135 36.1219 102.364 35.8708C102.661 35.5522 103.291 35.7936 103.779 35.7646C104.161 35.7453 104.543 35.7743 104.925 35.755C105.174 35.7453 105.269 35.8322 105.26 36.0833C105.241 36.4405 105.279 36.7881 105.25 37.1454C105.222 37.522 105.346 37.6475 105.728 37.6378C106.999 37.6185 108.279 37.6572 109.55 37.6185C111.528 37.5606 112.904 38.98 112.656 41.2491C112.455 43.0258 111.375 43.9527 109.608 43.9527C108.298 43.9527 106.999 43.9624 105.69 43.943C105.365 43.943 105.231 44.0299 105.25 44.3776C105.279 44.7928 105.241 45.2176 105.26 45.6328C105.269 45.9128 105.164 45.9901 104.897 45.9804C104.132 45.9708 103.368 45.9708 102.603 45.9804C102.355 45.9804 102.269 45.9032 102.278 45.6521C102.298 45.1983 102.269 44.7541 102.288 44.3003C102.298 44.0299 102.202 43.943 101.934 43.943C101.179 43.972 100.434 43.9624 99.6888 43.9527ZM106.98 41.9346C107.438 41.9346 107.907 41.9443 108.365 41.9346C109.006 41.9153 109.369 41.5291 109.378 40.9015C109.388 40.2256 109.034 39.7911 108.413 39.7718C107.477 39.7428 106.531 39.7718 105.594 39.7621C105.317 39.7621 105.241 39.878 105.241 40.1387C105.25 40.6215 105.26 41.1043 105.241 41.587C105.231 41.8574 105.317 41.9636 105.594 41.9443C106.053 41.925 106.521 41.9346 106.98 41.9346ZM100.53 41.9346C100.988 41.9346 101.447 41.925 101.906 41.9443C102.164 41.954 102.278 41.8864 102.269 41.5967C102.25 41.1043 102.25 40.6022 102.269 40.1097C102.278 39.82 102.154 39.7621 101.896 39.7621C100.979 39.7718 100.052 39.7525 99.1346 39.7718C98.4657 39.7814 98.1408 40.187 98.1408 40.9111C98.1408 41.5484 98.4944 41.9153 99.1346 41.9346C99.6124 41.9443 100.071 41.9346 100.53 41.9346Z" fill="black"/>
<path id="Vector_2" d="M88.6777 45.9903C87.4355 45.9323 85.8875 46.0965 84.349 45.9034C82.8105 45.7103 82.0938 45.073 81.9696 43.5184C81.8358 41.7417 81.8167 39.9458 81.9792 38.1691C82.113 36.6918 82.9156 36.0062 84.3872 35.8517C85.9161 35.6876 87.445 35.7841 88.9644 35.7648C90.3213 35.7455 91.6686 35.7745 93.0256 35.7552C93.3887 35.7455 93.4938 35.8614 93.4651 36.2186C93.4365 36.7014 93.4365 37.1842 93.4651 37.667C93.4842 38.005 93.3696 38.1015 93.0351 38.1015C90.9615 38.0919 88.8975 38.0919 86.8239 38.1015C86.585 38.1015 86.3461 38.1401 86.1168 38.1691C85.5052 38.2464 85.1612 38.6133 85.0083 39.2023C84.9128 39.5692 84.9605 39.7237 85.381 39.7237C87.0532 39.7044 88.7255 39.714 90.3977 39.714C91.2769 39.714 92.1464 39.7237 93.0256 39.7044C93.3409 39.6947 93.4842 39.772 93.4651 40.1196C93.4365 40.612 93.4365 41.1141 93.4651 41.6162C93.4842 41.9638 93.36 42.0411 93.0351 42.0411C90.522 42.0314 87.9993 42.0314 85.4861 42.0314C84.8841 42.0314 84.865 42.0604 85.0466 42.659C85.2568 43.3736 85.6677 43.6729 86.5755 43.6729C88.6777 43.6922 90.78 43.7019 92.8822 43.6729C93.3791 43.6632 93.5129 43.8081 93.4651 44.2812C93.4269 44.6964 93.4269 45.1213 93.4651 45.5365C93.5033 45.942 93.3409 46.0096 92.9778 45.9999C91.6495 45.971 90.3117 45.9903 88.6777 45.9903Z" fill="black"/>
<path id="Vector_3" d="M8.73578 32.2405C7.40754 30.8983 6.1653 29.6334 4.9135 28.3782C4.77972 28.243 4.79883 28.0885 4.79883 27.934C4.79883 21.7157 4.79883 15.4878 4.78928 9.26946C4.78928 8.94116 4.90394 8.86392 5.20017 8.86392C6.2513 8.87357 7.30242 8.88323 8.35355 8.86392C8.70711 8.85426 8.774 8.9991 8.774 9.31774C8.76445 16.8106 8.76445 24.3035 8.76445 31.7963C8.76445 31.8929 8.75489 31.9991 8.73578 32.2405Z" fill="black"/>
<path id="Vector_4" d="M13.5798 14.5027C13.5798 17.8436 13.5702 21.1941 13.5894 24.535C13.5894 24.9406 13.4842 25.0468 13.0925 25.0371C12.0604 25.0082 11.0284 25.0178 9.98686 25.0371C9.70019 25.0371 9.56641 24.9888 9.56641 24.6509C9.57596 17.9112 9.57596 11.1715 9.56641 4.4414C9.56641 4.11311 9.67152 4.02621 9.9773 4.03586C11.0475 4.04552 12.1082 4.05517 13.1785 4.03586C13.532 4.02621 13.5894 4.16139 13.5894 4.48003C13.5798 7.81126 13.5798 11.1618 13.5798 14.5027Z" fill="black"/>
<path id="Vector_5" d="M23.147 14.5607C23.147 17.8726 23.1375 21.1845 23.1566 24.4964C23.1566 24.8923 23.0897 25.0565 22.6501 25.0372C21.6468 24.9985 20.6435 24.9985 19.6401 25.0372C19.1814 25.0565 19.1719 24.844 19.1719 24.4964C19.1814 19.5141 19.1814 14.522 19.1814 9.53967C19.1814 7.86923 19.191 6.19878 19.1719 4.51868C19.1719 4.16142 19.2388 4.00693 19.6401 4.01658C20.6435 4.04555 21.6468 4.0552 22.6501 4.01658C23.0993 3.99727 23.1566 4.17107 23.1566 4.56696C23.1375 7.89819 23.147 11.2294 23.147 14.5607Z" fill="black"/>
<path id="Vector_6" d="M14.365 10.4474C14.365 7.13551 14.3746 3.82359 14.3555 0.502012C14.3555 0.106126 14.451 -0.0193984 14.8524 -0.00974263C15.8844 0.0192246 16.926 0.00956887 17.958 -0.00974263C18.2637 -0.00974263 18.3689 0.0578476 18.3689 0.386143C18.3593 7.10655 18.3593 13.8366 18.3689 20.557C18.3689 20.8756 18.2733 20.9626 17.9675 20.9626C16.8973 20.9432 15.8366 20.9432 14.7664 20.9626C14.4128 20.9722 14.3555 20.837 14.3555 20.5184C14.365 17.1775 14.365 13.8076 14.365 10.4474Z" fill="black"/>
<path id="Vector_7" d="M13.5798 35.8517C13.5798 39.0671 13.5702 42.2824 13.5894 45.4978C13.5894 45.8937 13.4842 45.9902 13.0925 45.9806C12.0604 45.9516 11.0284 45.9613 9.98686 45.9806C9.70019 45.9806 9.56641 45.942 9.56641 45.6137C9.57596 39.1347 9.57596 32.6557 9.56641 26.1766C9.56641 25.8677 9.67152 25.7808 9.9773 25.7808C11.0475 25.7904 12.1082 25.8001 13.1785 25.7808C13.532 25.7711 13.5894 25.9063 13.5894 26.2153C13.5798 29.421 13.5798 32.6363 13.5798 35.8517Z" fill="#FFCC00"/>
<path id="Vector_8" d="M23.147 35.8999C23.147 39.0863 23.1375 42.2727 23.1566 45.4591C23.1566 45.8453 23.0897 45.9998 22.6501 45.9805C21.6468 45.9418 20.6435 45.9418 19.6401 45.9805C19.1814 45.9998 19.1719 45.797 19.1719 45.4591C19.1814 40.6698 19.1814 35.8709 19.1814 31.0816C19.1814 29.4691 19.191 27.8663 19.1719 26.2538C19.1719 25.9158 19.2388 25.7613 19.6401 25.771C20.6435 25.7999 21.6468 25.8096 22.6501 25.771C23.0993 25.7517 23.1566 25.9255 23.1566 26.302C23.1375 29.4981 23.147 32.7038 23.147 35.8999Z" fill="#FFCC00"/>
<path id="Vector_9" d="M14.365 33.8339C14.365 30.0006 14.3746 26.1769 14.3555 22.3435C14.3555 21.8801 14.451 21.7449 14.8524 21.7545C15.8844 21.7835 16.926 21.7739 17.958 21.7545C18.2637 21.7449 18.3689 21.8415 18.3689 22.218C18.3593 29.9909 18.3593 37.7638 18.3689 45.5367C18.3689 45.9036 18.2733 46.0098 17.9675 46.0001C16.8973 45.9808 15.8366 45.9712 14.7664 46.0001C14.4128 46.0098 14.3555 45.8553 14.3555 45.4884C14.365 41.5971 14.365 37.7155 14.365 33.8339Z" fill="#FFCC00"/>
<path id="Vector_10" d="M23.9883 32.0765C23.9883 31.922 23.9883 31.7675 23.9883 31.6033C23.9883 24.2263 23.9883 16.8397 23.9883 9.46269C23.9883 8.85438 23.9883 8.85438 24.619 8.85438C25.5936 8.85438 26.5588 8.86404 27.5334 8.84473C27.8297 8.84473 27.9443 8.92197 27.9443 9.25027C27.9348 15.4686 27.9348 21.6965 27.9348 27.9148C27.9348 28.079 27.9348 28.2238 27.8106 28.359C26.5683 29.6046 25.3356 30.8598 24.1029 32.1054C24.0647 32.1054 24.0265 32.0958 23.9883 32.0765Z" fill="black"/>
<path id="Vector_11" d="M47.7979 45.9999C46.6512 45.9419 45.5141 46.0675 44.3674 45.9033C42.8767 45.6909 42.0931 44.8508 42.0645 43.3252C42.0358 41.7031 42.0358 40.0809 42.0645 38.4587C42.0931 36.9138 42.9245 35.9869 44.4534 35.871C46.6894 35.6875 48.935 35.6875 51.171 35.871C52.6808 35.9869 53.5026 36.8945 53.5313 38.4298C53.56 40.0809 53.56 41.7417 53.5313 43.3928C53.5026 44.8605 52.7095 45.7005 51.2762 45.9033C50.1104 46.0675 48.9541 45.9323 47.7979 45.9999ZM45.0745 40.863C45.0841 40.863 45.0841 40.863 45.0745 40.863C45.0841 41.3265 45.0554 41.7996 45.0841 42.2631C45.151 43.1418 45.5619 43.5956 46.4314 43.6439C47.3488 43.6922 48.2757 43.6922 49.193 43.6439C50.0721 43.5956 50.3779 43.277 50.483 42.3983C50.6073 41.3458 50.5977 40.2837 50.4735 39.2312C50.3875 38.536 50.1295 38.2656 49.451 38.1594C48.4381 38.0049 47.4157 38.0339 46.4123 38.1208C45.4567 38.2077 45.0936 38.6808 45.065 39.656C45.065 40.0616 45.0745 40.4671 45.0745 40.863Z" fill="black"/>
<path id="Vector_12" d="M60.7195 45.9711C59.9741 45.9325 58.8274 46.0484 57.6903 45.8939C56.171 45.6815 55.3683 44.7931 55.3587 43.2386C55.3492 41.6647 55.3492 40.0908 55.3587 38.5073C55.3683 36.9237 56.2187 35.9678 57.7859 35.8423C60.0124 35.6685 62.2388 35.6685 64.4558 35.8423C65.956 35.9581 66.7396 36.8272 66.8351 38.3431C66.9116 39.6949 66.9116 39.6949 65.6024 39.6949C65.3827 39.6949 65.1533 39.6949 64.9335 39.6949C64.6182 39.6949 64.2646 39.7722 63.9875 39.6563C63.7008 39.5404 63.8251 39.1156 63.72 38.8452C63.5575 38.4493 63.2708 38.2079 62.8695 38.1596C61.7419 38.0052 60.6144 37.9955 59.4963 38.15C58.8179 38.2465 58.4261 38.7197 58.4166 39.4149C58.3974 40.3805 58.3974 41.346 58.4166 42.3116C58.4357 43.0455 58.8274 43.5186 59.5728 43.6055C60.6144 43.731 61.675 43.731 62.7166 43.5958C63.4524 43.4993 63.7104 43.2289 63.806 42.4758C63.8633 42.0702 64.0162 42.0026 64.3793 42.0123C65.096 42.0413 65.8127 42.0219 66.5293 42.0219C66.7109 42.0219 66.8829 42.0026 66.8829 42.2827C66.8733 42.9296 66.902 43.5765 66.7205 44.1945C66.4147 45.247 65.6407 45.7298 64.6182 45.8746C64.4175 45.9036 64.2073 45.9518 64.0066 45.9615C63.032 45.9808 62.0764 45.9711 60.7195 45.9711Z" fill="black"/>
<path id="Vector_13" d="M68.6424 40.8436C68.6424 39.2793 68.6519 37.7248 68.6328 36.1605C68.6328 35.8516 68.6997 35.7453 69.0246 35.755C69.7699 35.7743 70.5248 35.7743 71.2702 35.755C71.5664 35.7453 71.6524 35.8516 71.6524 36.1412C71.6429 37.1551 71.662 38.1689 71.6429 39.1828C71.6333 39.569 71.7289 39.7139 72.1398 39.7139C73.6496 39.6945 75.1689 39.6945 76.6787 39.7139C77.0418 39.7139 77.1374 39.598 77.1374 39.2407C77.1183 38.2076 77.1374 37.184 77.1278 36.1509C77.1278 35.8709 77.1947 35.755 77.5005 35.7646C78.265 35.784 79.0294 35.7743 79.7939 35.7646C80.0423 35.7646 80.1665 35.8033 80.1665 36.1026C80.157 39.289 80.157 42.4754 80.1665 45.6618C80.1665 45.9032 80.0996 46.0094 79.8416 45.9997C79.0485 45.9901 78.2458 45.9804 77.4527 45.9997C77.1469 46.0094 77.1278 45.8453 77.1278 45.6135C77.1374 44.5707 77.1183 43.5182 77.1374 42.4754C77.1469 42.1085 77.0323 42.0119 76.6787 42.0216C75.1498 42.0409 73.6209 42.0409 72.092 42.0216C71.7193 42.0119 71.6333 42.1374 71.6429 42.4851C71.662 43.5182 71.6333 44.5417 71.662 45.5749C71.6715 45.9128 71.5569 46.0094 71.2224 45.9997C70.5057 45.9804 69.789 45.9708 69.0724 45.9997C68.6901 46.0191 68.6328 45.8646 68.6424 45.5266C68.6519 43.9624 68.6424 42.4078 68.6424 40.8436Z" fill="black"/>
<path id="Vector_14" d="M125.486 40.8725C125.486 39.3276 125.496 37.7827 125.477 36.2377C125.477 35.8708 125.543 35.726 125.945 35.7453C126.614 35.7839 127.283 35.7839 127.951 35.7453C128.372 35.726 128.534 35.8322 128.515 36.286C128.477 37.155 128.515 38.0241 128.496 38.8931C128.487 39.2407 128.611 39.3276 128.936 39.3276C130.56 39.3179 132.185 39.3276 133.809 39.3179C134.21 39.3179 134.602 39.3662 134.994 39.4435C136.064 39.6462 136.724 40.2932 136.905 41.3843C137.039 42.1953 137.049 43.0257 136.915 43.8368C136.714 45.0534 136.074 45.6618 134.87 45.8742C134.43 45.9514 133.991 45.9901 133.542 45.9901C131.028 45.9804 128.515 45.9707 125.993 45.9997C125.543 45.9997 125.477 45.8549 125.486 45.459C125.496 43.9237 125.486 42.3981 125.486 40.8725ZM130.885 43.6727C131.535 43.6727 132.185 43.6727 132.834 43.6727C133.513 43.6727 133.981 43.2478 133.991 42.6588C134 42.0891 133.561 41.6257 132.911 41.616C131.544 41.587 130.178 41.6063 128.812 41.6063C128.592 41.6063 128.487 41.6739 128.496 41.9057C128.506 42.3885 128.506 42.8712 128.496 43.354C128.487 43.6051 128.592 43.692 128.831 43.6823C129.519 43.663 130.197 43.6727 130.885 43.6727Z" fill="black"/>
<path id="Vector_15" d="M28.7757 40.8342C28.7757 39.2893 28.7853 37.7443 28.7662 36.1994C28.7566 35.8325 28.8713 35.7456 29.2248 35.7456C31.7189 35.7649 34.2225 35.7456 36.7165 35.7553C37.2039 35.7553 37.7007 35.7939 38.1881 35.9001C39.4494 36.1801 40.0323 36.7595 40.2234 38.0533C40.3286 38.7679 40.3286 39.5017 40.2139 40.2162C39.975 41.6356 39.1437 42.3115 37.6243 42.3984C35.8469 42.495 34.06 42.4467 32.2827 42.437C31.8527 42.437 31.738 42.5626 31.7571 42.9778C31.7858 43.8275 31.7571 44.6772 31.7762 45.5365C31.7858 45.8648 31.7093 45.9904 31.3558 45.9807C30.6391 45.9517 29.9224 45.9517 29.2057 45.9807C28.8713 45.9904 28.7757 45.8841 28.7757 45.5462C28.7757 43.982 28.7757 42.4081 28.7757 40.8342ZM34.232 38.0823C33.5345 38.0823 32.8369 38.092 32.1393 38.0823C31.8622 38.0726 31.7284 38.1499 31.7475 38.4589C31.7667 38.8934 31.7667 39.3279 31.7475 39.7624C31.738 40.0521 31.8335 40.1583 32.1298 40.1486C33.4771 40.139 34.8245 40.1486 36.1814 40.139C36.8216 40.139 37.2803 39.6948 37.2899 39.1251C37.2994 38.5458 36.8121 38.092 36.1527 38.092C35.5029 38.0823 34.8627 38.0823 34.232 38.0823Z" fill="black"/>
<path id="Vector_16" d="M118.369 35.7551C120.156 35.7551 121.934 35.7648 123.721 35.7455C124.045 35.7455 124.17 35.8131 124.151 36.1703C124.122 36.6628 124.122 37.1649 124.151 37.667C124.17 38.0243 124.026 38.0918 123.711 38.0918C122.564 38.0725 121.418 38.1015 120.271 38.0725C119.879 38.0629 119.755 38.1787 119.755 38.5843C119.774 40.8824 119.755 43.1901 119.774 45.4881C119.774 45.8937 119.669 46.0096 119.268 45.9902C118.618 45.9613 117.958 45.9516 117.309 45.9902C116.898 46.0096 116.774 45.913 116.774 45.4688C116.802 43.1997 116.774 40.9306 116.793 38.6615C116.793 38.2077 116.688 38.0532 116.219 38.0629C115.168 38.1015 114.117 38.0532 113.066 38.0822C112.655 38.0918 112.55 37.9567 112.579 37.5608C112.607 37.0973 112.607 36.6242 112.579 36.1607C112.56 35.8131 112.674 35.7358 113.009 35.7358C114.805 35.7648 116.582 35.7551 118.369 35.7551Z" fill="black"/>
<path id="Vector_17" d="M3.91958 27.3836C2.62956 26.0704 1.38732 24.8055 0.135523 23.5503C0.0017432 23.4151 0.0017432 23.2703 0.0017432 23.1061C0.0017432 20.1128 0.0017432 17.1292 -0.0078125 14.1359C-0.0078125 13.8366 0.0590773 13.7111 0.383971 13.7111C1.46376 13.7304 2.54356 13.7207 3.63291 13.7111C3.91002 13.7111 3.98647 13.8076 3.98647 14.078C3.97691 18.4327 3.97691 22.7875 3.97691 27.1422C3.98647 27.1905 3.96736 27.2388 3.91958 27.3836Z" fill="black"/>
<path id="Vector_18" d="M28.7752 27.3838C28.7752 27.1038 28.7752 26.959 28.7752 26.8142C28.7752 22.6332 28.7847 18.4523 28.7656 14.2617C28.7656 13.8175 28.8803 13.692 29.3199 13.7016C30.3041 13.7306 31.2979 13.721 32.2821 13.7016C32.5879 13.692 32.7312 13.7499 32.7312 14.1168C32.7217 17.1101 32.7217 20.1034 32.7217 23.0967C32.7217 23.2415 32.7408 23.3864 32.6166 23.5022C31.3648 24.7671 30.113 26.032 28.7752 27.3838Z" fill="black"/>
</g>
</g>
</g>
<defs>
<clipPath id="clip0_0_32">
<rect width="137" height="46" fill="white"/>
</clipPath>
</defs>
</svg>
