<svg width="155" height="52" viewBox="0 0 155 52" fill="none" xmlns="http://www.w3.org/2000/svg">
<g id="Sibur_Holding_Logo 2" clip-path="url(#clip0_0_61)">
<g id="Group 52">
<path id="Vector" d="M38.0037 29.4672C38.0037 29.4672 38.5967 22.7423 38.657 22.0839C38.6746 21.7011 38.6149 21.3187 38.4815 20.9594C38.3482 20.6002 38.1439 20.2714 37.8808 19.9929C37.6176 19.7143 37.3012 19.4915 36.9501 19.3378C36.5991 19.1841 36.2207 19.1027 35.8376 19.0984H18.8655C18.0831 19.0442 17.3107 19.3001 16.7154 19.8108C16.1201 20.3214 15.7497 21.0459 15.6842 21.8276C15.6088 22.6167 14.2016 38.8761 14.1162 39.8109C14.066 40.2091 14.1002 40.6133 14.2165 40.9973C14.3329 41.3814 14.5287 41.7366 14.7913 42.04C15.0539 42.3434 15.3774 42.5881 15.7408 42.7583C16.1042 42.9284 16.4993 43.0202 16.9004 43.0276H33.772C36.0135 43.0276 36.8829 41.8415 37.0739 40.012C37.1895 38.9163 37.7423 32.2969 37.7423 32.2969H27.54L27.1028 37.4135H24.5195L25.6302 24.7125H28.2135L27.8014 29.4672H38.0037Z" fill="#008C95"/>
<path id="Vector_2" d="M53.7459 21.1441C53.3841 22.1895 50.4138 31.4827 50.4138 31.4827L51.7356 19.0884H41.5383L39.4023 43.0277H47.0868C49.0167 43.0277 49.675 41.932 49.9967 41.0524C50.3837 40.007 53.2132 32.1864 53.2132 32.1864L52.1728 43.0277H62.3752L64.4759 19.0984H56.4699C55.8545 19.094 55.2546 19.2917 54.7625 19.6613C54.2704 20.0308 53.9132 20.5518 53.7459 21.1441Z" fill="#008C95"/>
<path id="Vector_3" d="M105.421 19.0986L104.466 30.0103H101.878L102.833 19.0986H92.6354C92.6354 19.0986 91.6553 30.6587 91.5498 31.7694C91.4292 33.1013 92.183 34.9861 94.4396 34.9861H104.034L103.823 37.4137H91.0573L90.5547 43.0279H110.854C112.231 43.0279 113.558 42.1282 113.739 40.2082C113.854 38.9768 115.608 19.0986 115.608 19.0986H105.421Z" fill="#008C95"/>
<path id="Vector_4" d="M132.036 19.1035H118.184L116.094 43.0277H126.291L126.939 35.6243H136.85C138.604 35.6243 139.765 34.7297 139.956 32.679C140.027 31.8799 140.836 22.8128 140.886 22.0136C141.012 20.2444 139.604 19.1035 137.87 19.1035H132.036ZM127.377 30.6635L127.879 24.7277H130.437L129.935 30.6635H127.377Z" fill="#008C95"/>
<path id="Vector_5" d="M76.5699 27.1354L76.786 24.7128H89.5615L90.0641 19.0986H67.0712L64.9805 43.0229H85.3349C86.6315 43.0229 88.0337 42.2589 88.2146 40.2585C88.3503 38.7507 88.9786 31.6438 89.0941 30.3521C89.2449 28.6281 88.1493 27.1354 86.0033 27.1354H76.5699ZM78.2184 38.047H75.615L76.1176 32.1162H78.7159L78.2184 38.047Z" fill="#008C95"/>
</g>
</g>
<defs>
<clipPath id="clip0_0_61">
<rect width="155" height="52" fill="white"/>
</clipPath>
</defs>
</svg>
